<svg xmlns="http://www.w3.org/2000/svg" xmlns:xlink="http://www.w3.org/1999/xlink" width="113.213" height="174.04" viewBox="0 0 113.213 174.04"><defs><clipPath id="clip-path"><rect id="Rectangle_49" data-name="Rectangle 49" width="113.213" height="174.04" fill="none"></rect></clipPath></defs><g id="Group_117" data-name="Group 117" transform="translate(0 0)"><g id="Group_116" data-name="Group 116" transform="translate(0 0)" clip-path="url(#clip-path)"><path id="Path_68" data-name="Path 68" d="M83.972.69A2.489,2.489,0,0,1,85.691.007L110.9,0a2.232,2.232,0,0,1,2.265,2.2s.087,20.027.023,24.526a2.149,2.149,0,0,1-.646,1.5L71.2,69.181a2.188,2.188,0,0,0,1.6,3.749h38.1a2.232,2.232,0,0,1,2.265,2.2v35.89a2.232,2.232,0,0,1-2.266,2.2H34.525a9.206,9.206,0,0,1-6.4-2.571L.663,84.013a2.147,2.147,0,0,1-.006-3.1Z" transform="translate(0 -0.001)" fill="#055445"></path><path id="Path_69" data-name="Path 69" d="M1.775,0H38.834A1.764,1.764,0,0,1,40.61,1.815,40.716,40.716,0,0,1,1.815,40.628,1.765,1.765,0,0,1,0,38.851V1.775A1.775,1.775,0,0,1,1.775,0" transform="translate(0 0)" fill="#055445"></path><path id="Path_70" data-name="Path 70" d="M15.326,92.427c-1.922,0-2.034-2.526-4.119-2.526-1.374,0-2.364.826-2.364,4.506,0,2.8.166,3.295.166,5v.077h4.835c1.482,0,1.482.276,1.482.988a2.724,2.724,0,0,1-2.912,2.582h-3.4v18.238c0,1.041.274,1.7.824,1.7,1.208,0,1.374.548,1.374,1.208,0,1.154-.824,1.87-2.638,1.87H2.635c-1.7,0-2.635-.716-2.635-1.87,0-.66.11-1.208,1.318-1.208.66,0,.934-.55.934-1.7V103.053H1.1c-.33,0-1.1,0-1.1-.768,0-2.987,2.252-2.8,2.252-2.8V98.91c0-5.767,1.7-7.854,3.3-9.228A14.283,14.283,0,0,1,14.5,86.274c.77,0,3.242.276,3.242,2.2,0,2.087-.384,3.953-2.418,3.953" transform="translate(0 47.368)" fill="#055445"></path><path id="Path_71" data-name="Path 71" d="M21.552,125.1H15.673c-1.208,0-2.745-.768-2.745-2.09,0-.658.164-1.318,1.372-1.318.55,0,.878-.768.878-1.867V93.314c0-1.537-.328-1.867-.878-1.867-1.262,0-1.43-.658-1.43-1.32,0-1.482,1.54-2.087,2.748-2.087H20.4c1.261,0,1.592,1.484,1.592,3.241v28.544c0,1.046.384,1.867.878,1.867,1.264,0,1.484.66,1.484,1.318,0,1.321-1.32,2.09-2.8,2.09" transform="translate(7.067 48.338)" fill="#055445"></path><path id="Path_72" data-name="Path 72" d="M45.771,121.408H41.652c-1.758,0-2.032-2.142-2.142-3.956a9.008,9.008,0,0,1-7.8,4.286c-5.931,0-7.525-3.738-7.525-8.845V100.038c0-1.151-.276-1.977-.824-1.977-1.262,0-1.372-.548-1.372-1.264,0-1.371,1.537-2.032,2.691-2.032h4.779c1.318,0,1.538,1.812,1.538,3.186v12.69c0,4.009.22,6.591,3.461,6.591a4.83,4.83,0,0,0,5-5.164v-12.03c0-1.151-.222-1.977-.716-1.977-1.318,0-1.592-.548-1.592-1.264,0-1.371,1.647-2.032,2.912-2.032h4.777c1.264,0,1.428,1.7,1.428,3.021v18.348c0,1.156.331,1.867.88,1.867,1.208,0,1.372.66,1.372,1.266,0,1.484-1.537,2.142-2.746,2.142" transform="translate(12.072 52.029)" fill="#055445"></path><path id="Path_73" data-name="Path 73" d="M64.069,121.408H57.038c-1.156,0-2.966-.166-2.966-1.87a1.165,1.165,0,0,1,1.043-1.318c.44-.11.824-.22.824-.713A4.91,4.91,0,0,0,55,115.256l-2.307-4.01L49.4,115.7a3.209,3.209,0,0,0-.716,1.757c0,1.208,1.594.606,1.594,2.087,0,1.374-1.1,1.87-2.308,1.87H43.414c-1.594,0-2.416-.44-2.416-1.7,0-.934.933-1.208,1.922-1.757a15.464,15.464,0,0,0,3.3-3.241L51,108.827l-5.384-8.622c-.934-1.428-1.262-2.362-2.471-2.362a1.285,1.285,0,0,1-1.43-1.208c0-1.428,1.484-1.87,2.582-1.87h6.593c1.537,0,2.912.276,2.912,1.54,0,1.591-1.594,1.318-1.594,2.249,0,.606,2.966,5.714,2.966,5.714l2.8-4.34a2.487,2.487,0,0,0,.494-1.484c0-.931-1.427-.548-1.427-1.977,0-1.207,1.208-1.7,2.635-1.7h3.682c1.044,0,2.8.166,2.8,1.76-.054.658-.55,1.261-1.7,1.318-.933.053-1.758,1.1-2.746,2.415l-4.889,6.483,5.767,9.173c1.044,1.648,1.484,2.364,2.526,2.416,1.208.056,1.374.548,1.374,1.208,0,1.211-.988,1.87-2.417,1.87" transform="translate(22.509 52.029)" fill="#055445"></path><path id="Path_74" data-name="Path 74" d="M69.807,122.264c-3.186,0-7.031-.163-9.449-2.139-1.154-.936-1.21-2.09-1.21-4.4,0-1.154.331-2.858,1.924-2.858,1.647,0,2.088,2.582,3.735,4.395,1.76,1.868,3.132,2.2,5.549,2.2a3.878,3.878,0,0,0,4.23-3.9c0-2.636-3.022-3.462-6.1-4.669-5.987-2.364-9.062-3.955-9.062-8.955,0-5.109,4.393-7.634,9.776-7.634,4.286,0,10,.438,10,3.953,0,3.3-.658,4.892-2.031,4.892-1.594,0-2.308-2.912-3.736-4.344A5.293,5.293,0,0,0,69.147,97c-1.868,0-3.9.931-3.9,3.351,0,3.021,4.01,3.9,6.647,4.779,6.263,2.087,8.845,3.733,8.845,8.678,0,6.263-6.209,8.459-10.932,8.459" transform="translate(32.474 51.777)" fill="#055445"></path></g></g></svg>